<?xml version="1.0" standalone="no"?>
<!DOCTYPE svg PUBLIC "-//W3C//DTD SVG 20010904//EN"
 "http://www.w3.org/TR/2001/REC-SVG-20010904/DTD/svg10.dtd">
<svg version="1.0" xmlns="http://www.w3.org/2000/svg"
 width="229.000000pt" height="111.000000pt" viewBox="0 0 229.000000 111.000000"
 preserveAspectRatio="xMidYMid meet">

<g transform="translate(0.000000,111.000000) scale(0.100000,-0.100000)"
fill="#000000" stroke="none">
<path d="M110 560 l0 -420 265 0 265 0 0 420 0 420 -265 0 -265 0 0 -420z
m403 136 c-3 -5 -32 -6 -64 -3 -70 6 -104 -11 -95 -49 9 -33 -12 -31 -25 2 -7
21 -6 31 7 45 15 16 30 19 99 17 46 -2 80 -7 78 -12z m-115 -33 c-9 -10 -13
-24 -10 -32 3 -8 0 -11 -7 -7 -12 8 -15 39 -4 49 3 4 13 7 21 7 13 0 13 -2 0
-17z m75 10 c-7 -2 -19 -2 -25 0 -7 3 -2 5 12 5 14 0 19 -2 13 -5z m-55 -23
c-7 -11 -15 -15 -17 -9 -2 6 3 15 10 20 20 12 21 11 7 -11z m50 0 c-14 -4 -32
-11 -40 -16 -10 -6 -10 -4 1 9 7 9 25 17 40 16 l26 -1 -27 -8z m-33 -80 c-3
-5 -14 -10 -23 -9 -14 0 -13 2 3 9 27 11 27 11 20 0z m-72 -7 c-7 -2 -19 -2
-25 0 -7 3 -2 5 12 5 14 0 19 -2 13 -5z m-119 -69 c19 -7 21 -45 4 -62 -19
-19 -30 -14 -17 7 13 20 6 51 -11 51 -6 0 -10 -27 -10 -65 0 -45 -4 -65 -12
-65 -9 0 -13 21 -13 70 0 65 2 70 22 70 12 0 28 -3 37 -6z m298 -21 c-4 -22
-2 -25 13 -19 18 7 18 6 1 -13 -12 -13 -17 -30 -14 -45 4 -21 -7 -36 -25 -36
-2 0 -1 17 0 38 1 20 3 52 4 70 1 17 8 32 14 32 8 0 10 -10 7 -27z m-197 -43
c9 -14 68 -13 83 2 9 9 12 9 12 -3 0 -22 -21 -39 -48 -39 -14 0 -31 -8 -39
-17 -13 -17 -14 -17 -8 3 3 13 -1 26 -10 34 -8 7 -15 16 -15 21 0 12 17 11 25
-1z m250 -59 c-3 -6 -11 -11 -17 -11 -6 0 -6 6 2 15 14 17 26 13 15 -4z m-202
-48 c-7 -2 -19 -2 -25 0 -7 3 -2 5 12 5 14 0 19 -2 13 -5z"/>
<path d="M741 418 c1 -29 4 -43 6 -31 3 13 13 23 26 25 26 4 31 48 7 56 -13 4
-13 3 -2 -11 16 -18 8 -37 -15 -37 -11 0 -14 7 -11 25 3 14 1 25 -3 25 -5 0
-8 -24 -8 -52z"/>
<path d="M900 420 c0 -27 3 -50 8 -50 4 0 7 23 7 50 0 28 -3 50 -7 50 -5 0 -8
-22 -8 -50z"/>
<path d="M1170 420 c0 -29 2 -51 5 -48 8 7 9 87 2 95 -4 3 -7 -18 -7 -47z"/>
<path d="M1370 420 c0 -27 5 -50 10 -50 6 0 10 7 10 17 0 14 2 14 21 -3 22
-19 22 -19 10 3 -6 12 -16 25 -21 28 -6 3 -10 17 -10 31 0 13 -4 24 -10 24 -5
0 -10 -22 -10 -50z"/>
<path d="M1559 440 c-7 -52 -1 -70 24 -69 17 1 18 2 5 6 -21 5 -24 33 -5 52 8
9 8 12 0 7 -7 -4 -13 2 -15 16 -3 17 -5 14 -9 -12z"/>
<path d="M1754 420 c0 -27 4 -50 8 -50 5 0 8 23 8 50 0 28 -4 50 -8 50 -5 0
-8 -22 -8 -50z"/>
<path d="M1860 420 c0 -27 5 -50 10 -50 6 0 10 7 10 17 0 14 3 14 22 -3 l22
-19 -22 32 c-12 17 -22 41 -22 52 0 12 -4 21 -10 21 -5 0 -10 -22 -10 -50z"/>
<path d="M979 454 c-3 -25 3 -80 10 -86 4 -4 6 13 5 38 -2 39 -12 74 -15 48z"/>
<path d="M859 438 c7 -10 11 -29 9 -43 -3 -13 -1 -22 3 -19 15 9 10 51 -8 65
-16 13 -17 12 -4 -3z"/>
<path d="M1026 434 c-19 -19 -20 -38 -3 -52 9 -8 12 -3 12 21 0 22 5 32 15 32
8 0 14 -6 13 -12 -2 -7 2 -13 7 -13 14 0 13 13 -2 28 -16 16 -23 15 -42 -4z"/>
<path d="M1112 438 c-17 -17 -15 -53 3 -68 10 -9 15 -9 15 -1 0 6 -4 11 -10
11 -5 0 -10 11 -10 25 0 17 7 29 23 35 13 5 16 9 7 9 -9 1 -21 -4 -28 -11z"/>
<path d="M1207 439 c6 -8 13 -27 16 -44 4 -23 4 -20 3 9 -1 25 -6 41 -16 44
-12 4 -13 2 -3 -9z"/>
<path d="M1288 439 c6 -7 12 -26 12 -41 0 -15 4 -28 8 -28 15 0 -2 73 -18 78
-12 4 -13 2 -2 -9z"/>
<path d="M1409 433 c-13 -16 -12 -17 4 -4 16 13 21 21 13 21 -2 0 -10 -8 -17
-17z"/>
<path d="M1473 443 c10 -2 17 -10 16 -16 -3 -29 2 -57 11 -57 14 0 12 54 -2
68 -7 7 -19 11 -27 11 -12 -1 -12 -2 2 -6z"/>
<path d="M1665 410 c0 -45 11 -53 21 -14 4 16 2 31 -7 39 -12 12 -14 8 -14
-25z"/>
<path d="M1710 430 c-14 -25 -5 -56 18 -65 14 -5 15 -4 5 6 -16 16 -17 51 -1
67 9 9 9 12 0 12 -6 0 -16 -9 -22 -20z"/>
<path d="M1946 442 c-3 -6 2 -9 12 -8 13 1 17 -6 16 -31 -1 -20 3 -33 10 -33
20 0 5 74 -16 78 -9 2 -19 -1 -22 -6z"/>
<path d="M815 419 c-4 -13 -2 -27 6 -35 12 -11 14 -8 14 21 0 39 -10 46 -20
14z"/>
<path d="M943 405 c0 -22 2 -30 4 -17 2 12 2 30 0 40 -3 9 -5 -1 -4 -23z"/>
<path d="M1250 405 c0 -19 5 -35 10 -35 6 0 10 16 10 35 0 19 -4 35 -10 35 -5
0 -10 -16 -10 -35z"/>
<path d="M1343 405 c0 -22 2 -30 4 -17 2 12 2 30 0 40 -3 9 -5 -1 -4 -23z"/>
<path d="M1627 433 c-10 -9 -9 -51 1 -57 5 -3 8 11 8 29 -1 19 -1 35 -2 35 0
0 -4 -3 -7 -7z"/>
<path d="M1810 410 c-29 -41 -20 -49 9 -9 13 17 21 33 18 35 -3 3 -15 -9 -27
-26z"/>
<path d="M1457 403 c-13 -13 -7 -33 11 -33 13 0 14 2 3 9 -7 5 -10 14 -7 20 8
12 3 15 -7 4z"/>
<path d="M1934 399 c-3 -6 1 -18 10 -27 10 -11 16 -12 16 -4 0 7 -4 12 -10 12
-5 0 -7 7 -4 15 7 17 -2 20 -12 4z"/>
<path d="M743 294 c-4 -10 1 -22 11 -30 19 -14 12 -39 -7 -28 -8 4 -7 2 1 -7
11 -12 14 -12 22 0 7 12 11 13 27 2 10 -8 3 0 -14 18 -35 33 -40 46 -20 54 9
4 9 6 -1 6 -7 1 -15 -6 -19 -15z"/>
<path d="M1160 300 c0 -5 5 -10 11 -10 5 0 7 5 4 10 -3 6 -8 10 -11 10 -2 0
-4 -4 -4 -10z"/>
<path d="M1211 296 c-10 -11 -7 -17 10 -29 24 -17 17 -42 -10 -32 -13 5 -14 4
-3 -6 10 -11 16 -10 30 4 16 17 16 19 -7 36 -23 18 -23 19 -5 29 10 6 14 12 8
12 -6 0 -17 -6 -23 -14z"/>
<path d="M1571 294 c0 -11 3 -14 6 -6 3 7 2 16 -1 19 -3 4 -6 -2 -5 -13z"/>
<path d="M1257 287 c-3 -8 -1 -20 4 -28 6 -10 9 -7 9 14 0 29 -5 35 -13 14z"/>
<path d="M814 267 c-8 -9 -7 -16 3 -25 11 -11 13 -8 13 13 0 28 -1 29 -16 12z"/>
<path d="M878 255 c2 -14 6 -25 8 -25 2 0 4 11 4 25 0 14 -4 25 -9 25 -4 0 -6
-11 -3 -25z"/>
<path d="M974 257 c1 -16 -4 -22 -18 -20 -13 1 -15 -2 -7 -10 7 -7 15 -6 26 3
16 14 20 36 7 44 -5 3 -8 -5 -8 -17z"/>
<path d="M1046 263 c-6 -14 -5 -15 5 -6 7 7 10 15 7 18 -3 3 -9 -2 -12 -12z"/>
<path d="M1291 265 c0 -11 3 -26 7 -33 9 -14 42 -6 42 10 0 6 -6 5 -15 -2 -12
-10 -16 -10 -19 1 -13 42 -14 44 -15 24z"/>
<path d="M1350 256 c0 -14 3 -27 8 -29 4 -3 7 8 7 24 0 16 -3 29 -7 29 -5 0
-8 -11 -8 -24z"/>
<path d="M1413 256 c1 -17 9 -31 17 -33 10 -3 11 -2 4 4 -7 4 -14 19 -17 33
-4 22 -5 21 -4 -4z"/>
<path d="M1440 270 c0 -5 5 -10 11 -10 5 0 7 5 4 10 -3 6 -8 10 -11 10 -2 0
-4 -4 -4 -10z"/>
<path d="M1502 255 c0 -16 2 -22 5 -12 2 9 2 23 0 30 -3 6 -5 -1 -5 -18z"/>
<path d="M1523 264 c-3 -9 2 -23 13 -32 17 -16 17 -16 5 0 -7 10 -11 25 -7 33
3 8 3 15 0 15 -2 0 -7 -7 -11 -16z"/>
<path d="M1583 273 c-19 -7 -16 -16 10 -32 20 -13 21 -13 9 2 -8 9 -11 21 -7
27 7 11 6 11 -12 3z"/>
<path d="M1622 255 c0 -16 2 -22 5 -12 2 9 2 23 0 30 -3 6 -5 -1 -5 -18z"/>
<path d="M1074 249 c-3 -6 -1 -16 5 -22 9 -9 11 -8 6 5 -4 11 0 18 12 21 15 4
16 5 1 6 -9 0 -20 -4 -24 -10z"/>
<path d="M1460 240 c0 -5 5 -10 11 -10 5 0 7 5 4 10 -3 6 -8 10 -11 10 -2 0
-4 -4 -4 -10z"/>
<path d="M1038 233 c7 -3 16 -2 19 1 4 3 -2 6 -13 5 -11 0 -14 -3 -6 -6z"/>
</g>
</svg>
